<svg width="25" height="24" viewBox="0 0 25 24" fill="none" xmlns="http://www.w3.org/2000/svg">
<path d="M12.25 0C5.35938 0 0 5.35938 0 12.25C0 20.2891 7.27344 23.7344 8.42188 23.7344C9.1875 23.7344 9.1875 23.3516 9.1875 22.9688V21.0547C6.50781 21.8203 5.35938 20.2891 4.97656 19.1406C4.97656 19.1406 4.97656 18.7578 4.21094 17.9922C3.82812 17.6094 2.29688 16.8438 3.82812 16.8438C4.97656 16.8438 5.74219 18.375 5.74219 18.375C6.89062 19.9062 8.42188 19.5234 9.1875 19.1406C9.1875 18.375 9.95312 17.6094 9.95312 17.6094C6.89062 17.2266 4.59375 16.0781 4.59375 11.8672C4.59375 10.3359 4.97656 9.1875 5.74219 8.42188C5.74219 8.42188 4.97656 6.89062 5.74219 4.97656C5.74219 4.97656 7.65625 4.97656 9.1875 6.50781C10.3359 5.74219 14.1641 5.74219 15.3125 6.50781C16.8438 4.97656 18.7578 4.97656 18.7578 4.97656C19.5234 7.65625 18.7578 8.42188 18.7578 8.42188C19.5234 9.1875 19.9062 10.3359 19.9062 11.8672C19.9062 16.0781 17.2266 17.2266 14.5469 17.6094C14.9297 17.9922 15.3125 18.7578 15.3125 19.9062V22.9688C15.3125 23.3516 15.3125 23.7344 16.0781 23.7344C17.2266 23.7344 24.5 20.2891 24.5 12.25C24.5 5.35938 19.1406 0 12.25 0Z" fill="black"/>
</svg>
